HIERARCHY
ROOT joint_Root
{
	OFFSET 0.0 0.0 0.0
	CHANNELS 6 Xposition Yposition Zposition Zrotation Xrotation Yrotation 
	JOINT Hips
	{
		OFFSET -0.726466 93.3139 -2.00062
		CHANNELS 6 Xposition Yposition Zposition Zrotation Xrotation Yrotation 
		JOINT Spine
		{
			OFFSET 15.7357 0.0 0.0
			CHANNELS 6 Xposition Yposition Zposition Zrotation Xrotation Yrotation 
			JOINT Chest
			{
				OFFSET 8.98455 -0.406207 0.0
				CHANNELS 6 Xposition Yposition Zposition Zrotation Xrotation Yrotation 
				JOINT Neck
				{
					OFFSET 16.3773 0.0 0.0
					CHANNELS 6 Xposition Yposition Zposition Zrotation Xrotation Yrotation 
					JOINT Head
					{
						OFFSET 6.45672 0.0 0.0
						CHANNELS 6 Xposition Yposition Zposition Zrotation Xrotation Yrotation 
						End Site
						{
							OFFSET 0.0 0.0 0.0
						}
					}
				}
				JOINT Shoulder_L
				{
					OFFSET 12.9942 -0.242716 4.98039
					CHANNELS 6 Xposition Yposition Zposition Zrotation Xrotation Yrotation 
					JOINT UpperArm_L
					{
						OFFSET 5.34809 0.0 0.0
						CHANNELS 6 Xposition Yposition Zposition Zrotation Xrotation Yrotation 
						JOINT LowerArm_L
						{
							OFFSET 24.3286 1.87007e-05 0.0
							CHANNELS 6 Xposition Yposition Zposition Zrotation Xrotation Yrotation 
							JOINT Hand_L
							{
								OFFSET 22.2916 0.0 0.0
								CHANNELS 6 Xposition Yposition Zposition Zrotation Xrotation Yrotation 
								End Site
								{
									OFFSET 0.0 0.0 0.0
								}
							}
						}
					}
				}
				JOINT Shoulder_R
				{
					OFFSET 12.9945 -0.242716 -4.98039
					CHANNELS 6 Xposition Yposition Zposition Zrotation Xrotation Yrotation 
					JOINT UpperArm_R
					{
						OFFSET -5.34813 0.0 0.0
						CHANNELS 6 Xposition Yposition Zposition Zrotation Xrotation Yrotation 
						JOINT LowerArm_R
						{
							OFFSET -24.3289 0.000322201 0.0
							CHANNELS 6 Xposition Yposition Zposition Zrotation Xrotation Yrotation 
							JOINT Hand_R
							{
								OFFSET -22.2915 -0.000108084 0.0
								CHANNELS 6 Xposition Yposition Zposition Zrotation Xrotation Yrotation 
								End Site
								{
									OFFSET 0.0 0.0 0.0
								}
							}
						}
					}
				}
			}
		}
		JOINT UpperLeg_L
		{
			OFFSET -2.19248 -6.46944 0.0
			CHANNELS 6 Xposition Yposition Zposition Zrotation Xrotation Yrotation 
			JOINT LowerLeg_L
			{
				OFFSET 39.0811 0.0 -1.23785e-05
				CHANNELS 6 Xposition Yposition Zposition Zrotation Xrotation Yrotation 
				JOINT Foot_L
				{
					OFFSET 40.9854 0.0 -1.26872e-05
					CHANNELS 6 Xposition Yposition Zposition Zrotation Xrotation Yrotation 
					JOINT Toes_L
					{
						OFFSET 11.7543 0.0 0.0
						CHANNELS 6 Xposition Yposition Zposition Zrotation Xrotation Yrotation 
						End Site
						{
							OFFSET 0.0 0.0 0.0
						}
					}
				}
			}
		}
		JOINT UpperLeg_R
		{
			OFFSET -2.19251 6.46944 0.0
			CHANNELS 6 Xposition Yposition Zposition Zrotation Xrotation Yrotation 
			JOINT LowerLeg_R
			{
				OFFSET -39.0811 -0.00228153 -0.0401928
				CHANNELS 6 Xposition Yposition Zposition Zrotation Xrotation Yrotation 
				JOINT Foot_R
				{
					OFFSET -40.9854 0.0 0.0
					CHANNELS 6 Xposition Yposition Zposition Zrotation Xrotation Yrotation 
					JOINT Toes_R
					{
						OFFSET -11.7543 0.0 0.0
						CHANNELS 6 Xposition Yposition Zposition Zrotation Xrotation Yrotation 
						End Site
						{
							OFFSET 0.0 0.0 0.0
						}
					}
				}
			}
		}
	}
}
MOTION
Frames:	4
Frame Time:	0.0333333
0.000000 0.000000 0.000000 0.000000 0.000000 -0.000000 -0.160474 92.237700 -0.407208 88.137900 -0.521291 6.031210 15.735700 0.000005 -0.000001 78.867600 86.190100 -78.098000 8.984550 -0.406207 -0.000000 -0.278812 -1.524870 1.534570 16.377300 -0.000001 -0.000001 5.462260 -2.297830 0.093175 6.456720 -0.000001 -0.000000 8.474390 -2.799240 -0.624166 12.994200 -0.242716 4.980390 -86.145800 -11.675600 -71.587300 5.348090 -0.000007 -0.000001 -83.717700 -26.220700 -99.577000 24.328600 0.000019 0.000005 12.524200 4.306240 -71.323500 22.291600 -0.000001 0.000005 22.902200 5.530100 -7.799570 12.994500 -0.242716 -4.980390 91.889000 -6.370520 -73.445600 -5.348130 -0.000001 -0.000004 -74.893200 -25.583900 -105.247000 -24.328900 0.000322 -0.000009 13.705500 6.590400 -64.800100 -22.291500 -0.000108 -0.000004 19.935500 5.464300 -5.158700 -2.192480 -6.469440 -0.000000 -175.376000 -8.691020 -0.726062 39.081100 -0.000007 -0.000012 -0.106580 0.247807 23.272400 40.985400 -0.000006 -0.000013 0.324969 4.276760 -66.670700 11.754300 -0.000000 0.000003 -0.000048 -0.000543 -16.598600 -2.192510 6.469440 -0.000001 178.801000 14.683400 -177.932000 -39.081100 -0.002282 -0.040193 -0.041327 0.124218 19.770500 -40.985400 0.000008 0.000006 2.923780 7.246710 -66.081500 -11.754300 -0.000006 -0.000006 -0.008086 -0.088734 -20.186500
0.000000 0.000000 0.000000 0.000000 0.000000 -0.000000 -0.188205 92.245500 -0.430452 88.127900 -0.476813 5.989830 15.735700 0.000005 -0.000001 78.994500 86.185800 -78.238100 8.984550 -0.406207 -0.000000 -0.267360 -1.508960 1.508430 16.377300 -0.000001 -0.000001 5.578090 -2.319600 0.054359 6.456720 -0.000001 -0.000000 8.274100 -2.902320 -0.402993 12.994200 -0.242716 4.980390 -86.137600 -11.705700 -71.594200 5.348090 -0.000007 -0.000001 -83.644900 -26.298800 -99.555700 24.328600 0.000019 0.000005 12.485700 4.291850 -71.326500 22.291600 -0.000001 0.000005 22.854400 5.530070 -7.798250 12.994500 -0.242716 -4.980390 91.890400 -6.343070 -73.366400 -5.348130 -0.000001 -0.000004 -74.722300 -25.669600 -105.182000 -24.328900 0.000322 -0.000009 13.576800 6.531410 -64.781500 -22.291500 -0.000108 -0.000004 19.944700 5.464760 -5.175790 -2.192480 -6.469440 -0.000000 -175.356000 -8.650860 -0.776469 39.081100 -0.000007 -0.000012 -0.107776 0.250977 23.240100 40.985400 -0.000006 -0.000013 0.298897 4.270860 -66.629600 11.754300 -0.000000 0.000003 -0.000041 -0.000481 -16.596300 -2.192510 6.469440 -0.000001 178.859000 14.709800 -177.966000 -39.081100 -0.002282 -0.040193 -0.038304 0.116046 19.733100 -40.985400 0.000008 0.000006 3.045350 7.200770 -66.075500 -11.754300 -0.000006 -0.000006 -0.008170 -0.089414 -20.214300
0.000000 0.000000 0.000000 0.000000 0.000000 -0.000000 -0.226715 92.248100 -0.453284 88.123400 -0.476034 5.935900 15.735700 0.000005 -0.000001 78.986800 86.177300 -78.236800 8.984550 -0.406207 -0.000000 -0.250925 -1.512670 1.495740 16.377300 -0.000001 -0.000001 5.626710 -2.292490 0.083465 6.456720 -0.000001 -0.000000 8.252930 -2.909840 -0.426128 12.994200 -0.242716 4.980390 -86.132700 -11.688500 -71.547200 5.348090 -0.000007 -0.000001 -83.577800 -26.380100 -99.490800 24.328600 0.000019 0.000005 12.441100 4.258300 -71.398300 22.291600 -0.000001 0.000005 22.988900 5.532190 -7.891580 12.994500 -0.242716 -4.980390 91.894100 -6.346580 -73.344300 -5.348130 -0.000001 -0.000004 -74.513600 -25.671000 -105.018000 -24.328900 0.000322 -0.000009 13.550900 6.483630 -64.898800 -22.291500 -0.000108 -0.000004 20.153400 5.466570 -5.242570 -2.192480 -6.469440 -0.000000 -175.344000 -8.620210 -0.853579 39.081100 -0.000007 -0.000012 -0.107166 0.249558 23.239900 40.985400 -0.000006 -0.000013 0.270271 4.250740 -66.604400 11.754300 -0.000000 0.000003 -0.000045 -0.000521 -16.597800 -2.192510 6.469440 -0.000001 178.895000 14.751800 -178.025000 -39.081100 -0.002282 -0.040193 -0.038701 0.117327 19.706000 -40.985400 0.000008 0.000006 2.988200 7.258120 -66.038700 -11.754300 -0.000006 -0.000006 -0.008194 -0.089607 -20.222200
0.000000 0.000000 0.000000 0.000000 0.000000 -0.000000 -0.250246 92.249400 -0.455047 88.121500 -0.540893 5.965200 15.735700 0.000005 -0.000001 79.484400 86.151300 -78.748100 8.984550 -0.406207 -0.000000 -0.187944 -1.455570 1.469360 16.377300 -0.000001 -0.000001 5.717680 -2.260790 0.048195 6.456720 -0.000001 -0.000000 8.230450 -2.880930 -0.403073 12.994200 -0.242716 4.980390 -86.136600 -11.669900 -71.537800 5.348090 -0.000007 -0.000001 -83.486900 -26.436100 -99.423300 24.328600 0.000019 0.000005 12.608400 4.300120 -71.468100 22.291600 -0.000001 0.000005 23.059300 5.532040 -7.885340 12.994500 -0.242716 -4.980390 91.871500 -6.267640 -73.337700 -5.348130 -0.000001 -0.000004 -74.282700 -25.668500 -104.786000 -24.328900 0.000322 -0.000009 13.627900 6.458850 -65.111700 -22.291500 -0.000108 -0.000004 20.151400 5.465410 -5.199720 -2.192480 -6.469440 -0.000000 -175.314000 -8.696450 -0.815936 39.081100 -0.000007 -0.000012 -0.107691 0.250890 23.230800 40.985400 -0.000006 -0.000013 0.254604 4.249640 -66.595100 11.754300 -0.000000 0.000003 -0.000042 -0.000482 -16.596300 -2.192510 6.469440 -0.000001 178.905000 14.751200 -178.011000 -39.081100 -0.002282 -0.040193 -0.038400 0.116319 19.731900 -40.985400 0.000008 0.000006 3.150270 7.297440 -66.074200 -11.754300 -0.000006 -0.000006 -0.008210 -0.089742 -20.227700
